<svg data-v-0dd9719b="" version="1.0" xmlns="http://www.w3.org/2000/svg" xmlns:xlink="http://www.w3.org/1999/xlink" width="100%" height="100%" viewBox="0 0 340.000000 250.000000" preserveAspectRatio="xMidYMid meet" color-interpolation-filters="sRGB" style="margin: auto;"> <rect data-v-0dd9719b="" x="0" y="0" width="100%" height="100%" fill="#fff" fill-opacity="1" class="background"></rect> <rect data-v-0dd9719b="" x="0" y="0" width="100%" height="100%" fill="url(#watermark)" fill-opacity="1" class="watermarklayer"></rect> <g data-v-0dd9719b="" fill="#1A1A1A" class="icon-text-wrapper icon-svg-group iconsvg" transform="translate(79.88999938964844,67.75330352783203)"><g class="iconsvg-imagesvg" transform="translate(60.11000061035156,0)"><g><rect fill="#1A1A1A" fill-opacity="0" stroke-width="2" x="0" y="0" width="59.99999999999999" height="81.40339452155153" class="image-rect"></rect> <svg x="0" y="0" width="59.99999999999999" height="81.40339452155153" filtersec="colorsb2515321367" class="image-svg-svg primary" style="overflow: visible;"><svg xmlns="http://www.w3.org/2000/svg" viewBox="0.017619749531149864 -1.1920928955078125e-7 92.87039184570312 126"><title>g8</title><g data-name="图层 2"><g data-name="Layer 1"><path d="M92.78 15.44A14.37 14.37 0 0 0 89.59 8Q86.85 4.56 81 2.28q-2.46-.91-4.29-1.43l-3-.85A23.53 23.53 0 0 1 74 6.49a42.85 42.85 0 0 0-6.55-1.42 68.19 68.19 0 0 0-7.69-.63A52.3 52.3 0 0 0 39.4 8a59 59 0 0 0-17.31 10.4A63.17 63.17 0 0 0 9.12 34a17.69 17.69 0 0 1 29.27 12.51c1.24-3.17 2.59-6.3 4.08-9.37a88 88 0 0 1 8-13.56 47.74 47.74 0 0 1 9-9.57q4.67-3.65 9.11-3.65a5.51 5.51 0 0 1 4.44 2.05 58.91 58.91 0 0 1-2 6.55q-1.2 3.25-2.68 6.44a95.79 95.79 0 0 0-4.84 11.05 24 24 0 0 0-1.5 9.64 11.85 11.85 0 0 0 3.19 7.52q2.9 3.14 9.51 4.61a28 28 0 0 0 4.67.85q2.05.17 4.1.17A10.61 10.61 0 0 1 82 53.55a25.79 25.79 0 0 1 1.08-6.72 59 59 0 0 1 2.62-7.18q1.59-3.64 3.08-7.18a49.28 49.28 0 0 0 3.22-8.6 22.34 22.34 0 0 0 .78-8.43z" fill="#8cc63f"></path><path d="M40.39 41.69l-.14.33zM18.41 21.86A63.91 63.91 0 0 0 9.14 34a64 64 0 0 1 9.27-12.14z" fill="#fbb03b"></path><path d="M20.71 29.66A17.64 17.64 0 0 0 9.12 34l-.12.12a63.21 63.21 0 0 0-5.18 11.2c10.39 4.81 21.73 4.77 31.47 10 .26-.85.52-1.7.8-2.56.71-2.12 1.48-4.21 2.3-6.29a17.71 17.71 0 0 0-17.68-16.81z" fill="#fbb03b"></path><path d="M77.63 72.23a12.77 12.77 0 0 0-5.3-6.32q-3.93-2.56-11.79-2.56h-5.7a5.08 5.08 0 0 1 2.57 3.3 13.41 13.41 0 0 1 .4 4.79q-.69 3.53-1.42 6.44t-1.65 5.87a28.15 28.15 0 0 1-5.53 10 9.14 9.14 0 0 1-7.69 3.13A9.25 9.25 0 0 1 34 92.45a21.92 21.92 0 0 1-2.91-10.08A56 56 0 0 1 32 68.53a109.28 109.28 0 0 1 3.24-13.17h-.05a16.5 16.5 0 0 0-31.39-10c-.08.22-.14.46-.22.68s-.11.32-.15.49a63.84 63.84 0 0 0-1.93 7.06A58.28 58.28 0 0 0 .38 73.14a34.32 34.32 0 0 0 5.75 15.61A31.37 31.37 0 0 0 18.9 99.18Q27 103 39 103.33a24.13 24.13 0 0 0 10.6-2.16q-2.05 6.84-3.76 12.13a61.92 61.92 0 0 1-3.53 8.89A23.1 23.1 0 0 1 39.9 126c11.46-2.42 23.55-7.21 30.18-16.9A17.92 17.92 0 0 0 72 104q1.08-3.59 2-6.55l3-9.57a45.91 45.91 0 0 0 1.54-7.63 17 17 0 0 0-.91-8.02z" fill="#1a1a1a"></path></g></g></svg></svg> <!----></g></g> <g transform="translate(0,88.40339660644531)"><g data-gra="path-name" fill-rule="" class="tp-name iconsvg-namesvg"><g transform="scale(1)"><g><path d="M11.72-3.11L12.16-3.11Q11.81-1.66 11-1.08L11-1.08Q9.57-0.05 9.48 0.07L9.48 0.07Q8.53 1.15 7.99 3.6 7.45 6.04 6.07 7.66 4.68 9.27 3.23 9.27L3.23 9.27Q2.47 9.27 1.87 8.74 1.27 8.21 1.27 7.66L1.27 7.66 1.27 6.34Q1.27 4.98 2.65 3.64L2.65 3.64Q3.94 2.61 5.24 1.57L5.24 1.57Q6.62 0.44 6.62-0.37L6.62-0.37Q6.62-0.74 6.44-1.04L6.44-1.04Q5.65-0.67 4.88-0.33 4.11 0 3.41 0L3.41 0Q1.98 0 0.99-0.99 0-1.98 0-3.6L0-3.6Q0-6.69 2.4-8.88L2.4-8.88Q4.38-10.68 6.04-10.68L6.04-10.68Q6.83-10.68 7.61-10.08 8.4-9.48 8.65-9.48L8.65-9.48Q8.81-9.48 9.09-8.83 9.37-8.19 9.9-8.19L9.9-8.19Q10.17-8.19 10.29-8 10.4-7.82 10.4-7.54L10.4-7.54Q10.4-7.27 9.92-5.1L9.92-5.1Q9.37-2.65 9.09-2.31L9.09-2.31 9.09-0.99Q9.64-0.99 10.24-1.41L10.24-1.41Q11.03-1.96 11.72-3.11L11.72-3.11ZM8.03-7.66L8.03-7.66Q8.03-8.14 7.54-8.81 7.06-9.48 6.67-9.48L6.67-9.48Q5.17-9.48 4.01-6.94L4.01-6.94Q3.02-4.77 3.02-3.02L3.02-3.02Q3.02-2.77 3.01-2.54 3-2.31 3-2.1L3-2.1Q3-1.59 3.14-1.4 3.28-1.2 3.81-1.2L3.81-1.2Q5.72-1.2 7.04-4.04L7.04-4.04Q8.03-6.18 8.03-7.66ZM6.16 2.74L6.16 2.74 6.16 2.1 5.67 2.1Q4.59 3.21 3.51 4.31L3.51 4.31Q2.4 5.61 2.4 6.97L2.4 6.97Q2.4 7.5 2.6 7.89 2.79 8.28 3.23 8.28L3.23 8.28Q4.34 8.28 5.19 5.91L5.19 5.91Q5.67 4.31 6.16 2.74ZM23.23-4.24L23.23-3.23Q22.17-2.15 21.48-1.61L21.48-1.61Q19.4 0 17.78 0L17.78 0 15.75 0Q14.56 0 13.26-1.15L13.26-1.15Q11.72-2.54 11.72-4.45L11.72-4.45Q11.72-5.28 12.46-6.64L12.46-6.64Q13.38-8.33 14.76-9.37L14.76-9.37Q16.56-10.7 18.78-10.7L18.78-10.7Q20.48-10.7 21.2-10.01L21.2-10.01Q21.8-9.43 21.8-8.28L21.8-8.28Q21.8-6.55 20.02-5.28L20.02-5.28Q19.1-4.61 16.72-3.62L16.72-3.62Q14.95-2.88 14.95-2.42L14.95-2.42Q14.95-1.96 15.59-1.49 16.24-1.01 17.16-1.01L17.16-1.01Q18.94-1.01 20.09-1.78L20.09-1.78Q21.66-3 23.23-4.24L23.23-4.24ZM19.19-8.28L19.19-8.28Q19.19-9 18.96-9.25 18.73-9.5 18.18-9.5L18.18-9.5Q17.07-9.5 16.42-8.37 15.78-7.24 15.15-6.07L15.15-6.07 15.15-4.24Q16.49-4.75 17.16-5.19L17.16-5.19Q19.19-6.5 19.19-8.28ZM36.75-4.66L36.75-3.64Q35.8-2.56 34.85-1.5L34.85-1.5Q33.26 0 31.51 0L31.51 0 27.47 0Q26.23 0 25.14-0.92L25.14-0.92Q24.17-2.08 23.23-3.23L23.23-3.23 23.23-5.44Q23.23-6.97 25.6-9.09L25.6-9.09Q27.4-10.7 29.69-10.7L29.69-10.7Q31.79-10.7 33.01-9.41L33.01-9.41Q34.14-8.21 34.14-6.27L34.14-6.27Q34.14-5.01 33.54-3.83 32.94-2.65 31.51-1.22L31.51-1.22 32.32-1.22Q34.72-2.47 35.32-3.18L35.32-3.18Q36.4-4.52 36.75-4.66L36.75-4.66ZM31.51-5.86L31.51-5.86 31.51-7.47Q31.51-8.23 30.93-8.87 30.36-9.5 29.5-9.5L29.5-9.5Q28.26-9.5 27.25-7.91 26.25-6.32 26.25-4.66L26.25-4.66Q26.25-3.25 26.6-2.38L26.6-2.38Q27.06-1.22 28.07-1.22L28.07-1.22Q29.5-1.22 30.56-2.86L30.56-2.86Q31.51-4.34 31.51-5.86Z" transform="translate(0, 16.81999969482422)"></path></g> <!----> <!----> <!----> <!----> <!----> <!----> <g data-gra="path-name-1" fill="#1A1A1A" transform="translate(39.75,0)"><g transform="scale(1)"><path d="M1.4-12.19L3.98-12.19 4.05-10.91Q5.34-12.41 7.57-12.41L7.57-12.41Q10.01-12.41 10.91-10.54L10.91-10.54Q12.24-12.41 14.65-12.41L14.65-12.41Q16.67-12.41 17.65-11.3 18.64-10.18 18.66-8.01L18.66-8.01 18.66 0 15.93 0 15.93-7.93Q15.93-9.09 15.42-9.63 14.91-10.17 13.74-10.17L13.74-10.17Q12.81-10.17 12.21-9.67 11.62-9.17 11.39-8.36L11.39-8.36 11.4 0 8.66 0 8.66-8.02Q8.6-10.17 6.46-10.17L6.46-10.17Q4.82-10.17 4.13-8.83L4.13-8.83 4.13 0 1.4 0 1.4-12.19ZM26.84 0.23L26.84 0.23Q24.24 0.23 22.62-1.41 21.01-3.05 21.01-5.78L21.01-5.78 21.01-6.12Q21.01-7.94 21.71-9.38 22.41-10.81 23.69-11.61 24.96-12.41 26.52-12.41L26.52-12.41Q29.01-12.41 30.37-10.82 31.73-9.24 31.73-6.33L31.73-6.33 31.73-5.23 23.77-5.23Q23.89-3.72 24.77-2.84 25.66-1.96 27-1.96L27-1.96Q28.88-1.96 30.06-3.48L30.06-3.48 31.54-2.07Q30.8-0.98 29.58-0.38 28.36 0.23 26.84 0.23ZM26.51-10.22L26.51-10.22Q25.39-10.22 24.69-9.43 24-8.64 23.81-7.23L23.81-7.23 29.02-7.23 29.02-7.43Q28.93-8.81 28.29-9.51 27.65-10.22 26.51-10.22ZM33.85-12.19L36.42-12.19 36.5-10.91Q37.79-12.41 40.02-12.41L40.02-12.41Q42.46-12.41 43.36-10.54L43.36-10.54Q44.69-12.41 47.1-12.41L47.1-12.41Q49.12-12.41 50.1-11.3 51.09-10.18 51.11-8.01L51.11-8.01 51.11 0 48.37 0 48.37-7.93Q48.37-9.09 47.87-9.63 47.36-10.17 46.19-10.17L46.19-10.17Q45.25-10.17 44.66-9.67 44.07-9.17 43.84-8.36L43.84-8.36 43.85 0 41.11 0 41.11-8.02Q41.05-10.17 38.91-10.17L38.91-10.17Q37.27-10.17 36.58-8.83L36.58-8.83 36.58 0 33.85 0 33.85-12.19ZM53.41-6.07L53.41-6.21Q53.41-8 54.12-9.43 54.83-10.87 56.11-11.64 57.4-12.41 59.06-12.41L59.06-12.41Q61.53-12.41 63.07-10.82 64.6-9.24 64.73-6.61L64.73-6.61 64.74-5.97Q64.74-4.17 64.05-2.75 63.35-1.33 62.07-0.55 60.78 0.23 59.09 0.23L59.09 0.23Q56.51 0.23 54.96-1.49 53.41-3.21 53.41-6.07L53.41-6.07ZM56.15-5.97L56.15-5.97Q56.15-4.09 56.92-3.02 57.7-1.96 59.09-1.96 60.47-1.96 61.24-3.04 62.01-4.12 62.01-6.21L62.01-6.21Q62.01-8.05 61.22-9.13 60.43-10.22 59.06-10.22L59.06-10.22Q57.72-10.22 56.93-9.15 56.15-8.09 56.15-5.97ZM73.45-12.25L73.44-9.69Q72.89-9.78 72.32-9.78L72.32-9.78Q70.44-9.78 69.79-8.33L69.79-8.33 69.79 0 67.05 0 67.05-12.19 69.66-12.19 69.73-10.82Q70.72-12.41 72.48-12.41L72.48-12.41Q73.06-12.41 73.45-12.25L73.45-12.25ZM78.08-12.19L78.08 0 75.34 0 75.34-12.19 78.08-12.19ZM75.17-15.35L75.17-15.35Q75.17-15.98 75.57-16.4 75.97-16.82 76.71-16.82 77.46-16.82 77.86-16.4 78.27-15.98 78.27-15.35L78.27-15.35Q78.27-14.73 77.86-14.32 77.46-13.91 76.71-13.91 75.97-13.91 75.57-14.32 75.17-14.73 75.17-15.35ZM90.23-10.45L83.98-2.19 90.46-2.19 90.46 0 80.58 0 80.58-1.79 86.76-9.98 80.69-9.98 80.69-12.19 90.23-12.19 90.23-10.45ZM102.73 0L99.94 0Q99.76-0.35 99.62-1.14L99.62-1.14Q98.32 0.23 96.42 0.23L96.42 0.23Q94.59 0.23 93.43-0.82 92.27-1.87 92.27-3.41L92.27-3.41Q92.27-5.36 93.71-6.4 95.16-7.44 97.85-7.44L97.85-7.44 99.53-7.44 99.53-8.24Q99.53-9.19 99-9.76 98.47-10.33 97.39-10.33L97.39-10.33Q96.46-10.33 95.86-9.86 95.26-9.39 95.26-8.67L95.26-8.67 92.53-8.67Q92.53-9.67 93.19-10.55 93.85-11.42 95-11.92 96.14-12.41 97.55-12.41L97.55-12.41Q99.69-12.41 100.96-11.34 102.23-10.26 102.27-8.31L102.27-8.31 102.27-2.82Q102.27-1.17 102.73-0.19L102.73-0.19 102.73 0ZM96.93-1.97L96.93-1.97Q97.74-1.97 98.46-2.37 99.17-2.76 99.53-3.42L99.53-3.42 99.53-5.72 98.06-5.72Q96.54-5.72 95.77-5.19 95-4.66 95-3.69L95-3.69Q95-2.91 95.53-2.44 96.05-1.97 96.93-1.97ZM105.83-15.15L108.56-15.15 108.56-12.19 110.72-12.19 110.72-10.16 108.56-10.16 108.56-3.36Q108.56-2.66 108.84-2.35 109.12-2.04 109.83-2.04L109.83-2.04Q110.3-2.04 110.78-2.15L110.78-2.15 110.78-0.03Q109.85 0.23 108.98 0.23L108.98 0.23Q105.83 0.23 105.83-3.26L105.83-3.26 105.83-10.16 103.82-10.16 103.82-12.19 105.83-12.19 105.83-15.15ZM115.72-12.19L115.72 0 112.98 0 112.98-12.19 115.72-12.19ZM112.81-15.35L112.81-15.35Q112.81-15.98 113.21-16.4 113.61-16.82 114.35-16.82 115.1-16.82 115.5-16.4 115.91-15.98 115.91-15.35L115.91-15.35Q115.91-14.73 115.5-14.32 115.1-13.91 114.35-13.91 113.61-13.91 113.21-14.32 112.81-14.73 112.81-15.35ZM118.18-6.07L118.18-6.21Q118.18-8 118.89-9.43 119.6-10.87 120.89-11.64 122.17-12.41 123.84-12.41L123.84-12.41Q126.3-12.41 127.84-10.82 129.38-9.24 129.5-6.61L129.5-6.61 129.51-5.97Q129.51-4.17 128.82-2.75 128.13-1.33 126.84-0.55 125.55 0.23 123.86 0.23L123.86 0.23Q121.28 0.23 119.73-1.49 118.18-3.21 118.18-6.07L118.18-6.07ZM120.92-5.97L120.92-5.97Q120.92-4.09 121.7-3.02 122.47-1.96 123.86-1.96 125.25-1.96 126.02-3.04 126.79-4.12 126.79-6.21L126.79-6.21Q126.79-8.05 125.99-9.13 125.2-10.22 123.84-10.22L123.84-10.22Q122.5-10.22 121.71-9.15 120.92-8.09 120.92-5.97ZM131.79-12.19L134.37-12.19 134.45-10.78Q135.8-12.41 137.99-12.41L137.99-12.41Q141.8-12.41 141.87-8.05L141.87-8.05 141.87 0 139.13 0 139.13-7.9Q139.13-9.06 138.63-9.61 138.13-10.17 136.99-10.17L136.99-10.17Q135.34-10.17 134.53-8.67L134.53-8.67 134.53 0 131.79 0 131.79-12.19Z" transform="translate(-1.399999976158142, 16.81999969482422)"></path></g></g></g></g> <!----></g></g><defs v-gra="od"></defs></svg>
